<svg width="24" height="24" viewBox="0 0 24 24" fill="none" xmlns="http://www.w3.org/2000/svg">
<g clip-path="url(#clip0_3146_71551)">
<rect width="2" height="2" fill="#00A8CA"/>
<rect x="2" width="2" height="2" fill="#00A8CA"/>
<rect x="4" width="2" height="2" fill="#00A8CA"/>
<rect x="6" width="2" height="2" fill="#00A8CA"/>
<rect x="8" width="2" height="2" fill="#00A8CA"/>
<rect x="10" width="2" height="2" fill="#00A8CA"/>
<rect x="12" width="2" height="2" fill="#00A8CA"/>
<rect x="14" width="2" height="2" fill="#00A8CA"/>
<rect x="16" width="2" height="2" fill="#00A8CA"/>
<rect x="18" width="2" height="2" fill="#00A8CA"/>
<rect x="20" width="2" height="2" fill="#00A8CA"/>
<rect x="22" width="2" height="2" fill="#00A8CA"/>
<rect y="2" width="2" height="2" fill="#00A8CA"/>
<rect x="2" y="2" width="2" height="2" fill="#00D4FF"/>
<rect x="4" y="2" width="2" height="2" fill="#00A8CA"/>
<rect x="6" y="2" width="2" height="2" fill="#00A8CA"/>
<rect x="8" y="2" width="2" height="2" fill="#02677C"/>
<rect x="10" y="2" width="2" height="2" fill="#00A8CA"/>
<rect x="12" y="2" width="2" height="2" fill="#00A8CA"/>
<rect x="14" y="2" width="2" height="2" fill="#02677C"/>
<rect x="16" y="2" width="2" height="2" fill="#00A8CA"/>
<rect x="18" y="2" width="2" height="2" fill="#00A8CA"/>
<rect x="20" y="2" width="2" height="2" fill="#00A8CA"/>
<rect x="22" y="2" width="2" height="2" fill="#00A8CA"/>
<rect y="4" width="2" height="2" fill="#00A8CA"/>
<rect x="2" y="4" width="2" height="2" fill="#00A8CA"/>
<rect x="4" y="4" width="2" height="2" fill="#00A8CA"/>
<rect x="6" y="4" width="2" height="2" fill="#00D4FF"/>
<rect x="8" y="4" width="2" height="2" fill="#00A8CA"/>
<rect x="10" y="4" width="2" height="2" fill="#00A8CA"/>
<rect x="12" y="4" width="2" height="2" fill="#00A8CA"/>
<rect x="14" y="4" width="2" height="2" fill="#00A8CA"/>
<rect x="16" y="4" width="2" height="2" fill="#00A8CA"/>
<rect x="18" y="4" width="2" height="2" fill="#D3F8FF"/>
<rect x="20" y="4" width="2" height="2" fill="#00A8CA"/>
<rect x="22" y="4" width="2" height="2" fill="#00A8CA"/>
<rect y="6" width="2" height="2" fill="#00A8CA"/>
<rect x="2" y="6" width="2" height="2" fill="#02677C"/>
<rect x="4" y="6" width="2" height="2" fill="#C2F5FF"/>
<rect x="6" y="6" width="2" height="2" fill="#00A8CA"/>
<rect x="8" y="6" width="2" height="2" fill="#00A8CA"/>
<rect x="10" y="6" width="2" height="2" fill="#00A8CA"/>
<rect x="12" y="6" width="2" height="2" fill="#00A8CA"/>
<rect x="14" y="6" width="2" height="2" fill="#00A8CA"/>
<rect x="16" y="6" width="2" height="2" fill="#00A8CA"/>
<rect x="18" y="6" width="2" height="2" fill="#00A8CA"/>
<rect x="20" y="6" width="2" height="2" fill="#00D4FF"/>
<rect x="22" y="6" width="2" height="2" fill="#00A8CA"/>
<rect y="8" width="2" height="2" fill="#005F73"/>
<rect x="2" y="8" width="2" height="2" fill="#00A8CA"/>
<rect x="4" y="8" width="2" height="2" fill="#00A8CA"/>
<rect x="6" y="8" width="2" height="2" fill="#00A8CA"/>
<rect x="8" y="8" width="2" height="2" fill="#00A8CA"/>
<rect x="10" y="8" width="2" height="2" fill="#C2F5FF"/>
<rect x="12" y="8" width="2" height="2" fill="#00A8CA"/>
<rect x="14" y="8" width="2" height="2" fill="#02677C"/>
<rect x="16" y="8" width="2" height="2" fill="#00A8CA"/>
<rect x="18" y="8" width="2" height="2" fill="#00A8CA"/>
<rect x="20" y="8" width="2" height="2" fill="#00A8CA"/>
<rect x="22" y="8" width="2" height="2" fill="#00A8CA"/>
<rect y="10" width="2" height="2" fill="#005F73"/>
<rect x="2" y="10" width="2" height="2" fill="#00A8CA"/>
<rect x="4" y="10" width="2" height="2" fill="#00A8CA"/>
<rect x="6" y="10" width="2" height="2" fill="#00A8CA"/>
<rect x="8" y="10" width="2" height="2" fill="#00D4FF"/>
<rect x="10" y="10" width="2" height="2" fill="#00A8CA"/>
<rect x="12" y="10" width="2" height="2" fill="#00A8CA"/>
<rect x="14" y="10" width="2" height="2" fill="#00A8CA"/>
<rect x="16" y="10" width="2" height="2" fill="#00A8CA"/>
<rect x="18" y="10" width="2" height="2" fill="#00A8CA"/>
<rect x="20" y="10" width="2" height="2" fill="#00A8CA"/>
<rect x="22" y="10" width="2" height="2" fill="#00A8CA"/>
<rect y="12" width="2" height="2" fill="#005F73"/>
<rect x="2" y="12" width="2" height="2" fill="#00A8CA"/>
<rect x="4" y="12" width="2" height="2" fill="#00A8CA"/>
<rect x="6" y="12" width="2" height="2" fill="#02677C"/>
<rect x="8" y="12" width="2" height="2" fill="#00A8CA"/>
<rect x="10" y="12" width="2" height="2" fill="#00A8CA"/>
<rect x="12" y="12" width="2" height="2" fill="#00A8CA"/>
<rect x="14" y="12" width="2" height="2" fill="#00A8CA"/>
<rect x="16" y="12" width="2" height="2" fill="#005F73"/>
<rect x="18" y="12" width="2" height="2" fill="#02677C"/>
<rect x="20" y="12" width="2" height="2" fill="#00A8CA"/>
<rect x="22" y="12" width="2" height="2" fill="#00A8CA"/>
<rect y="14" width="2" height="2" fill="#00A8CA"/>
<rect x="2" y="14" width="2" height="2" fill="#00A8CA"/>
<rect x="4" y="14" width="2" height="2" fill="#00D4FF"/>
<rect x="6" y="14" width="2" height="2" fill="#00A8CA"/>
<rect x="8" y="14" width="2" height="2" fill="#00A8CA"/>
<rect x="10" y="14" width="2" height="2" fill="#00A8CA"/>
<rect x="12" y="14" width="2" height="2" fill="#02677C"/>
<rect x="14" y="14" width="2" height="2" fill="#C2F5FF"/>
<rect x="16" y="14" width="2" height="2" fill="#00A8CA"/>
<rect x="18" y="14" width="2" height="2" fill="#00A8CA"/>
<rect x="20" y="14" width="2" height="2" fill="#4EDEFC"/>
<rect x="22" y="14" width="2" height="2" fill="#00A8CA"/>
<rect y="16" width="2" height="2" fill="#00A8CA"/>
<rect x="2" y="16" width="2" height="2" fill="#00A8CA"/>
<rect x="4" y="16" width="2" height="2" fill="#005F73"/>
<rect x="6" y="16" width="2" height="2" fill="#00A8CA"/>
<rect x="8" y="16" width="2" height="2" fill="#00A8CA"/>
<rect x="10" y="16" width="2" height="2" fill="#00A8CA"/>
<rect x="12" y="16" width="2" height="2" fill="#00A8CA"/>
<rect x="14" y="16" width="2" height="2" fill="#00A8CA"/>
<rect x="16" y="16" width="2" height="2" fill="#00A8CA"/>
<rect x="18" y="16" width="2" height="2" fill="#00A8CA"/>
<rect x="20" y="16" width="2" height="2" fill="#00A8CA"/>
<rect x="22" y="16" width="2" height="2" fill="#00A8CA"/>
<rect y="18" width="2" height="2" fill="#00A8CA"/>
<rect x="2" y="18" width="2" height="2" fill="#00A8CA"/>
<rect x="4" y="18" width="2" height="2" fill="#009DFF"/>
<rect x="6" y="18" width="2" height="2" fill="#00A8CA"/>
<rect x="8" y="18" width="2" height="2" fill="#00A8CA"/>
<rect x="10" y="18" width="2" height="2" fill="#00A8CA"/>
<rect x="12" y="18" width="2" height="2" fill="#02677C"/>
<rect x="14" y="18" width="2" height="2" fill="#00A8CA"/>
<rect x="16" y="18" width="2" height="2" fill="#00A8CA"/>
<rect x="18" y="18" width="2" height="2" fill="#02677C"/>
<rect x="20" y="18" width="2" height="2" fill="#00A8CA"/>
<rect x="22" y="18" width="2" height="2" fill="#00A8CA"/>
<rect y="20" width="2" height="2" fill="#00A8CA"/>
<rect x="2" y="20" width="2" height="2" fill="#00D4FF"/>
<rect x="4" y="20" width="2" height="2" fill="#00A8CA"/>
<rect x="6" y="20" width="2" height="2" fill="#009DFF"/>
<rect x="8" y="20" width="2" height="2" fill="#4EDEFC"/>
<rect x="10" y="20" width="2" height="2" fill="#00A8CA"/>
<rect x="12" y="20" width="2" height="2" fill="#00A8CA"/>
<rect x="14" y="20" width="2" height="2" fill="#00A8CA"/>
<rect x="16" y="20" width="2" height="2" fill="#00A8CA"/>
<rect x="18" y="20" width="2" height="2" fill="#00A8CA"/>
<rect x="20" y="20" width="2" height="2" fill="#00A8CA"/>
<rect x="22" y="20" width="2" height="2" fill="#00A8CA"/>
<rect y="22" width="2" height="2" fill="#00A8CA"/>
<rect x="2" y="22" width="2" height="2" fill="#00A8CA"/>
<rect x="4" y="22" width="2" height="2" fill="#00A8CA"/>
<rect x="6" y="22" width="2" height="2" fill="#00A8CA"/>
<rect x="8" y="22" width="2" height="2" fill="#00A8CA"/>
<rect x="10" y="22" width="2" height="2" fill="#00A8CA"/>
<rect x="12" y="22" width="2" height="2" fill="#00A8CA"/>
<rect x="14" y="22" width="2" height="2" fill="#4EDEFC"/>
<rect x="16" y="22" width="2" height="2" fill="#4EDEFC"/>
<rect x="18" y="22" width="2" height="2" fill="#00A8CA"/>
<rect x="20" y="22" width="2" height="2" fill="#4EDEFC"/>
<rect x="22" y="22" width="2" height="2" fill="#00A8CA"/>
</g>
<defs>
<clipPath id="clip0_3146_71551">
<rect width="24" height="24" rx="8" fill="white"/>
</clipPath>
</defs>
</svg>
