<svg width="240" height="240" viewBox="0 0 240 240" fill="none" xmlns="http://www.w3.org/2000/svg">
<rect x="70" y="110.433" width="20.0709" height="20.0709" fill="#00E1FF"/>
<rect x="90.0709" y="110.433" width="20.0709" height="20.0709" fill="#8A38F5"/>
<rect x="110.142" y="110.433" width="20.0709" height="20.0709" fill="#FF8000"/>
<rect x="130.213" y="110.433" width="20.0709" height="20.0709" fill="#D5FF00"/>
<rect x="150.283" y="110.433" width="20.0709" height="20.0709" fill="#FF2F00"/>
<rect x="130.213" y="130.504" width="20.0709" height="20.0709" fill="#00E1FF"/>
<rect x="150.283" y="130.504" width="20.0709" height="20.0709" fill="#8A38F5"/>
<rect x="70" y="130.504" width="20.0709" height="20.0709" fill="#FF8000"/>
<rect x="110.142" y="130.504" width="20.0709" height="20.0709" fill="#D5FF00"/>
<rect x="90.0709" y="130.504" width="20.0709" height="20.0709" fill="#FF2F00"/>
<rect x="130.213" y="90.3623" width="20.0709" height="20.0709" fill="#00E1FF"/>
<rect x="150.283" y="90.3623" width="20.0709" height="20.0709" fill="#8A38F5"/>
<rect x="70" y="90.3623" width="20.0709" height="20.0709" fill="#FF8000"/>
<rect x="90.0709" y="90.3623" width="20.0709" height="20.0709" fill="#D5FF00"/>
<rect x="110.142" y="90.3623" width="20.0709" height="20.0709" fill="#FF2F00"/>
<g clip-path="url(#clip0_66_198)">
<path fill-rule="evenodd" clip-rule="evenodd" d="M83.5829 0C59.5714 0 47.5657 0 34.6457 4C20.4674 9.14286 9.26171 20.3429 4.11657 34.5143C0 47.5429 0 59.5429 0 83.6571V156.343C0 180.571 0 192.457 4.00229 205.371C9.14743 219.543 20.3531 230.743 34.5314 235.886C47.5657 240 59.5714 240 83.5829 240H156.303C180.429 240 192.434 240 205.354 235.886C219.533 230.743 230.738 219.543 235.883 205.371C240 192.343 240 180.343 240 156.343V83.7714C240 59.6571 240 47.6571 235.883 34.7429C230.853 20.5714 219.648 9.37143 205.47 4.22857C192.549 0 180.657 0 156.417 0H83.5829Z" fill="black"/>
<g filter="url(#filter0_d_66_198)">
<path d="M129.89 108.343C155.16 113.714 166.707 124.228 166.707 141.943C166.707 164.114 148.641 180.457 120.4 182.286L117.656 195.428C117.427 196.686 116.283 197.6 114.912 197.6H93.1874C91.3577 197.6 90.1006 195.886 90.4434 194.171L93.8732 179.543C79.9234 175.543 68.6034 167.771 62.0869 158.286C61.2869 157.028 61.5154 155.428 62.6583 154.514L77.7509 142.743C79.0092 141.714 80.8377 142.057 81.7531 143.314C89.7566 154.514 102.105 161.143 116.97 161.143C130.349 161.143 140.41 154.628 140.41 145.257C140.41 138.057 135.379 134.743 118.343 131.2C89.3006 124.914 77.752 114.171 77.752 96.457C77.752 75.8856 95.0171 60.457 121.087 58.3998L123.945 44.7998C124.174 43.5427 125.318 42.6284 126.689 42.6284H148.071C149.786 42.6284 151.158 44.2284 150.815 45.9427L147.499 61.1427C158.705 64.5713 167.851 70.7427 173.569 78.3998C174.483 79.5427 174.255 81.257 173.112 82.1713L159.277 93.4856C158.018 94.5141 156.304 94.2856 155.389 93.0284C148.299 84.3427 137.322 79.4284 125.317 79.4284C111.938 79.4284 103.592 85.257 103.592 93.4856C103.363 100.343 109.881 104 129.89 108.343Z" fill="white"/>
</g>
</g>
<defs>
<filter id="filter0_d_66_198" x="57.6133" y="42.6284" width="120.52" height="162.971" filterUnits="userSpaceOnUse" color-interpolation-filters="sRGB">
<feFlood flood-opacity="0" result="BackgroundImageFix"/>
<feColorMatrix in="SourceAlpha" type="matrix" values="0 0 0 0 0 0 0 0 0 0 0 0 0 0 0 0 0 0 127 0" result="hardAlpha"/>
<feOffset dy="4"/>
<feGaussianBlur stdDeviation="2"/>
<feComposite in2="hardAlpha" operator="out"/>
<feColorMatrix type="matrix" values="0 0 0 0 0 0 0 0 0 0 0 0 0 0 0 0 0 0 0.25 0"/>
<feBlend mode="normal" in2="BackgroundImageFix" result="effect1_dropShadow_66_198"/>
<feBlend mode="normal" in="SourceGraphic" in2="effect1_dropShadow_66_198" result="shape"/>
</filter>
<clipPath id="clip0_66_198">
<rect width="240" height="240" fill="white"/>
</clipPath>
</defs>
</svg>
