<svg width="132" height="132" viewBox="0 0 132 132" fill="none" xmlns="http://www.w3.org/2000/svg">
<path d="M104.652 97.5914L98.3057 92.3671C94.8554 89.5273 91.9188 86.1154 89.6228 82.2822C86.4504 76.9856 82.0669 72.5163 76.8344 69.2415L74.2789 67.7535C73.4033 67.1448 72.7927 66.1961 72.7059 65.1258C72.6501 64.4357 72.8156 63.8188 73.2013 63.2759C74.532 61.4004 81.7754 53.605 83.0357 52.5622C84.659 51.2204 86.4678 50.1044 88.1458 48.8267C88.3844 48.6448 88.6238 48.4638 88.8597 48.2792C88.8679 48.271 88.8798 48.2646 88.8871 48.2573C89.4254 47.8323 89.9336 47.3808 90.3376 46.8452C92.3054 44.5666 92.2661 42.6409 92.2661 42.6409C92.2661 42.6409 92.2679 42.639 92.2688 42.6381C92.0595 42.1254 91.3064 40.5296 89.7755 39.781C91.1291 39.7545 92.6563 40.2618 93.3491 40.9399C94.1818 39.6338 94.7201 38.7866 95.5573 37.3626C95.7566 37.0244 95.8626 36.3993 95.4815 36.0492C95.4815 36.0492 95.4796 36.0492 95.4778 36.0492C95.4778 36.0492 95.4778 36.0474 95.4778 36.0455C95.4705 36.0382 95.4614 36.0327 95.454 36.0254C95.4467 36.0181 95.4422 36.0099 95.4339 36.0017C95.4339 36.0017 95.4321 36.0017 95.4303 36.0017C95.4303 36.0017 95.4303 35.9998 95.4303 35.998C95.4147 35.9825 95.3974 35.9706 95.3809 35.956C95.3709 35.9459 95.3626 35.934 95.3535 35.9231C95.3425 35.9139 95.3307 35.9057 95.3206 35.8957C95.3051 35.8801 95.295 35.8609 95.2786 35.8463C95.2786 35.8463 95.2758 35.8454 95.2749 35.8463C95.2749 35.8463 95.2749 35.8445 95.2749 35.8426C95.2676 35.8353 95.2585 35.8298 95.2511 35.8225C95.2438 35.8152 95.2384 35.8061 95.231 35.7988C95.231 35.7988 95.2283 35.7979 95.2274 35.7988C95.2274 35.7988 95.2274 35.7969 95.2274 35.7951C94.8773 35.414 94.2522 35.52 93.914 35.7193C92.0623 36.8087 90.2608 37.9814 88.6366 39.0096C88.6366 39.0096 86.7118 38.9694 84.4323 40.9381C83.8958 41.343 83.4443 41.8512 83.0202 42.3886C83.012 42.3968 83.0047 42.4078 82.9983 42.416C82.8127 42.6509 82.6318 42.8904 82.4508 43.1298C81.1721 44.8088 80.0571 46.6167 78.7153 48.2399C77.6734 49.5012 69.8771 56.7436 68.0016 58.0744C67.4587 58.4601 66.8427 58.6264 66.1517 58.5698C65.0824 58.4839 64.1327 57.8724 63.524 56.9968L62.036 54.4413C58.7612 49.2069 54.2919 44.8253 48.9953 41.6528C45.1621 39.3569 41.7511 36.4194 38.9104 32.97L33.6861 26.6233C33.4283 26.3107 32.9348 26.3619 32.7502 26.722C32.1561 27.8791 31.0218 30.3222 30.1526 33.6079C30.1316 33.6856 30.1499 33.7679 30.2011 33.83C31.2814 35.1352 33.783 38.0115 36.7625 40.4446C36.97 40.6136 36.8 40.9482 36.5423 40.8769C33.9722 40.1768 31.4733 39.0526 29.6033 38.0947C29.4507 38.017 29.266 38.1139 29.2441 38.2839C28.9535 40.6127 28.8785 43.1701 29.1856 45.8663C29.1948 45.954 29.2505 46.0299 29.3319 46.0656C31.4642 46.9932 34.8743 48.3395 38.4543 49.1959C38.7139 49.2581 38.7057 49.6319 38.4434 49.6822C35.6557 50.2068 32.7364 50.3238 30.3637 50.2927C30.1974 50.2909 30.0749 50.4481 30.1197 50.6081C30.5959 52.2907 31.2412 54.0017 32.0921 55.7245C32.444 56.4987 32.8269 57.2582 33.2373 58.0013C33.3077 58.1283 33.4439 58.2042 33.5892 58.1978C35.5479 58.1018 37.9151 57.8953 40.2951 57.4748C40.7009 57.4035 40.9184 57.9373 40.5757 58.1667C38.9598 59.247 37.236 60.1775 35.6329 60.9434C35.4181 61.0467 35.3486 61.3209 35.4903 61.5119C36.4427 62.8024 37.4901 64.0235 38.628 65.1614C38.628 65.1614 44.2307 70.9323 44.3833 71.3847C47.6527 68.0368 53.0269 64.326 58.9614 61.086C51.0134 67.5533 46.5824 72.328 44.3523 75.0407L42.7976 77.2224C41.9896 78.3557 41.2886 79.5594 40.7027 80.8216C38.7422 85.0397 35.5104 93.5708 35.5104 93.5708C35.2627 94.2389 35.4647 94.8979 35.8943 95.3275C35.9043 95.3375 35.9144 95.3476 35.9253 95.3567C35.9354 95.3668 35.9445 95.3778 35.9546 95.3878C36.3851 95.8183 37.0431 96.0194 37.7113 95.7717C37.7113 95.7717 46.2406 92.5398 50.4604 90.5793C51.7226 89.9935 52.9273 89.2915 54.0597 88.4845L56.4626 86.7726C57.7348 85.8659 59.4769 86.0103 60.5819 87.1153L66.1206 92.6541C67.2585 93.792 68.4796 94.8394 69.7702 95.7918C69.9621 95.9325 70.2354 95.864 70.3387 95.6492C71.1055 94.047 72.0359 92.3214 73.1154 90.7064C73.3448 90.3636 73.8794 90.5821 73.8072 90.987C73.3859 93.3679 73.1812 95.7351 73.0843 97.6929C73.077 97.8373 73.1537 97.9744 73.2808 98.0448C74.0229 98.456 74.7825 98.839 75.5575 99.19C77.2804 100.041 78.9923 100.687 80.674 101.162C80.834 101.207 80.9912 101.085 80.9893 100.918C80.9573 98.5447 81.0743 95.6254 81.5999 92.8387C81.6492 92.5755 82.0231 92.5672 82.0861 92.8277C82.9416 96.4087 84.2879 99.8188 85.2165 101.95C85.2522 102.032 85.3271 102.086 85.4158 102.096C88.112 102.404 90.6693 102.329 92.9982 102.038C93.1691 102.017 93.266 101.832 93.1874 101.679C92.2295 99.8087 91.1053 97.3081 90.4052 94.7398C90.3348 94.4811 90.6684 94.312 90.8375 94.5195C93.2705 97.4991 96.1468 100.001 97.452 101.081C97.5142 101.132 97.5973 101.15 97.6741 101.129C100.961 100.261 103.404 99.1269 104.56 98.5319C104.92 98.3473 104.971 97.8537 104.659 97.596L104.652 97.5914Z" fill="white"/>
</svg>
